#define d8a784f8e3694c81d31f68439aa42f8387YGmqJLTyGpWqX2_width 16
#define d8a784f8e3694c81d31f68439aa42f8387YGmqJLTyGpWqX2_height 16
static char d8a784f8e3694c81d31f68439aa42f8387YGmqJLTyGpWqX2_bits[] = {
  0x40, 0x00, 0xC0, 0x00, 0xC0, 0x01, 0xC6, 0x03, 0x4C, 0x27, 0x78, 0x63, 
  0xF0, 0x61, 0xE0, 0x4C, 0xE0, 0x4C, 0xF0, 0x61, 0x78, 0x63, 0x4C, 0x27, 
  0xC6, 0x03, 0xC0, 0x01, 0xC0, 0x00, 0x40, 0x00, };
