#define cf4073a986064f9fd9c293944afa64c0A3xPAPwqw6mf9zhh_width 16
#define cf4073a986064f9fd9c293944afa64c0A3xPAPwqw6mf9zhh_height 16
static char cf4073a986064f9fd9c293944afa64c0A3xPAPwqw6mf9zhh_bits[] = {
  0x80, 0x01, 0x80, 0x03, 0x8C, 0x07, 0x9C, 0x0F, 0x38, 0x0D, 0x70, 0x0E, 
  0xE0, 0x04, 0xC0, 0x01, 0xC0, 0x03, 0xE0, 0x07, 0xF0, 0x0F, 0xB8, 0x1D, 
  0x98, 0x3F, 0x80, 0x37, 0x80, 0x03, 0x80, 0x01, };
