#define da53af954db74203979b084f10037c44WwbonXGO4odwrOs5_width 16
#define da53af954db74203979b084f10037c44WwbonXGO4odwrOs5_height 16
static char da53af954db74203979b084f10037c44WwbonXGO4odwrOs5_bits[] = {
  0x1E, 0x00, 0xE0, 0xC6, 0x80, 0x7C, 0x0E, 0x38, 0x70, 0x7C, 0xC0, 0xC6, 
  0x04, 0x01, 0x3C, 0x02, 0x60, 0x64, 0xC0, 0x4C, 0x8E, 0x49, 0x10, 0x89, 
  0x20, 0x91, 0x27, 0x93, 0x27, 0x90, 0x06, 0x00, };
