#define c7ee483677c04447cddd00ce12e7e7989qAlj5GFDLeJKzb3_width 16
#define c7ee483677c04447cddd00ce12e7e7989qAlj5GFDLeJKzb3_height 16
static char c7ee483677c04447cddd00ce12e7e7989qAlj5GFDLeJKzb3_bits[] = {
  0x00, 0x00, 0x00, 0x00, 0x00, 0x00, 0x0E, 0x00, 0x70, 0x00, 0xC0, 0x00, 
  0x04, 0x01, 0x3C, 0x02, 0x60, 0x04, 0xC0, 0x0C, 0x8E, 0x09, 0x10, 0x09, 
  0x20, 0x11, 0x27, 0x13, 0x27, 0x10, 0x06, 0x00, };
