#define ef39941ca6f14247877576d800e709a7b7kQNO9MJVrrReqz_width 16
#define ef39941ca6f14247877576d800e709a7b7kQNO9MJVrrReqz_height 16
static char ef39941ca6f14247877576d800e709a7b7kQNO9MJVrrReqz_bits[] = {
  0x00, 0x00, 0x00, 0x00, 0x00, 0x00, 0x00, 0x00, 0x00, 0x00, 0x00, 0x00, 
  0x04, 0x00, 0x3C, 0x00, 0x60, 0x00, 0xC0, 0x00, 0x8E, 0x01, 0x10, 0x01, 
  0x20, 0x01, 0x27, 0x03, 0x27, 0x00, 0x06, 0x00, };
