#define d729b3a61ea146b9d3bf754e2a0249408UL0aPcMhs59cWhD_width 16
#define d729b3a61ea146b9d3bf754e2a0249408UL0aPcMhs59cWhD_height 16
static char d729b3a61ea146b9d3bf754e2a0249408UL0aPcMhs59cWhD_bits[] = {
  0x00, 0x00, 0x00, 0x00, 0x00, 0x00, 0x00, 0x00, 0x00, 0x00, 0x00, 0x00, 
  0x00, 0x00, 0x00, 0x00, 0x00, 0x00, 0x00, 0x00, 0x0E, 0x00, 0x10, 0x00, 
  0x20, 0x00, 0x27, 0x00, 0x27, 0x00, 0x06, 0x00, };
