#define b6d4d15853234e6aa67bc639441b51de3h9UhVWbAhHGIzBj_width 16
#define b6d4d15853234e6aa67bc639441b51de3h9UhVWbAhHGIzBj_height 16
static char b6d4d15853234e6aa67bc639441b51de3h9UhVWbAhHGIzBj_bits[] = {
  0x00, 0x00, 0xF0, 0x0F, 0x50, 0x0A, 0xF0, 0x0F, 0x50, 0x0A, 0xF0, 0x0F, 
  0x80, 0x01, 0x80, 0x01, 0x80, 0x01, 0x80, 0x01, 0x80, 0x03, 0x40, 0x02, 
  0xE0, 0x03, 0x20, 0x04, 0xE0, 0x07, 0x20, 0x04, };
