#define eab5fb082f7a41d2c613dfef0dcd7b999g3wsPaWRUAXLmxE_width 16
#define eab5fb082f7a41d2c613dfef0dcd7b999g3wsPaWRUAXLmxE_height 16
static char eab5fb082f7a41d2c613dfef0dcd7b999g3wsPaWRUAXLmxE_bits[] = {
  0x00, 0x00, 0xF0, 0x0F, 0x50, 0x0A, 0xF0, 0x0F, 0x50, 0x0A, 0xF0, 0x0F, 
  0x80, 0x01, 0x80, 0x01, 0xC0, 0x03, 0xE0, 0x07, 0x30, 0x0C, 0x10, 0x08, 
  0xF8, 0x1F, 0x48, 0x12, 0xF8, 0x1F, 0x08, 0x10, };
