#define a245511c3e2c4d2fb7027abec5d853a1pk9duV6negYMWkMw_width 16
#define a245511c3e2c4d2fb7027abec5d853a1pk9duV6negYMWkMw_height 16
static char a245511c3e2c4d2fb7027abec5d853a1pk9duV6negYMWkMw_bits[] = {
  0xC0, 0x03, 0x70, 0x06, 0x18, 0x18, 0x08, 0x30, 0x0C, 0x60, 0x06, 0xC0, 
  0x03, 0x80, 0x11, 0x84, 0x31, 0x86, 0x63, 0xC3, 0xC6, 0x71, 0xC0, 0x01, 
  0x60, 0x03, 0x30, 0x06, 0x10, 0x04, 0x00, 0x00, };
