#define e08bfd7e306a4bd4a9883a16b4dfbdfbCyo0IjLS2yJLmEX6_width 16
#define e08bfd7e306a4bd4a9883a16b4dfbdfbCyo0IjLS2yJLmEX6_height 16
static char e08bfd7e306a4bd4a9883a16b4dfbdfbCyo0IjLS2yJLmEX6_bits[] = {
  0xC0, 0x03, 0x70, 0x06, 0x18, 0x18, 0x08, 0x30, 0x0C, 0x60, 0x06, 0xC0, 
  0x03, 0x80, 0x01, 0x80, 0x01, 0x80, 0x23, 0xC0, 0xF6, 0x37, 0x20, 0x00, 
  0x00, 0x04, 0xE0, 0x0F, 0x00, 0x04, 0x00, 0x00, };
